<?xml version="1.0" standalone="no"?>
<!DOCTYPE svg PUBLIC "-//W3C//DTD SVG 20010904//EN"
 "http://www.w3.org/TR/2001/REC-SVG-20010904/DTD/svg10.dtd">
<svg version="1.0" xmlns="http://www.w3.org/2000/svg"
 width="512.000000pt" height="512.000000pt" viewBox="0 0 512.000000 512.000000"
 preserveAspectRatio="xMidYMid meet">
<metadata>
Created by potrace 1.14, written by Peter Selinger 2001-2017
</metadata>
<g transform="translate(0.000000,512.000000) scale(0.100000,-0.100000)"
fill="#000000" stroke="none">
<path d="M2590 4591 c0 -5 36 -39 81 -76 115 -95 369 -354 451 -460 124 -158
208 -293 315 -505 160 -316 214 -529 209 -830 -2 -91 -6 -175 -9 -186 -3 -12
-8 -39 -11 -60 -23 -144 -113 -371 -215 -537 -48 -79 -63 -125 -60 -184 3 -55
17 -89 52 -121 56 -52 162 -62 222 -20 82 55 187 253 265 495 32 98 35 113 55
243 17 112 16 398 -1 530 -40 299 -168 622 -337 849 -44 58 -65 86 -82 105 -5
6 -25 29 -44 51 -87 104 -346 354 -487 472 -86 72 -215 158 -309 207 -70 36
-95 43 -95 27z"/>
<path d="M2070 4532 c0 -5 60 -53 133 -107 219 -163 364 -324 530 -587 101
-162 174 -316 222 -467 70 -220 89 -326 89 -496 0 -177 -21 -295 -98 -555 -55
-185 -43 -265 45 -305 50 -23 106 -26 148 -9 45 19 107 78 131 124 16 32 57
145 65 180 1 8 8 33 13 55 12 45 18 77 28 144 3 25 8 57 10 71 6 35 5 313 -1
379 -15 157 -67 330 -146 486 -115 228 -235 394 -423 585 -218 222 -343 317
-577 438 -115 60 -169 80 -169 64z"/>
<path d="M3123 4523 c9 -10 33 -27 54 -38 21 -11 43 -23 48 -27 6 -5 48 -36
95 -70 114 -84 345 -317 454 -458 199 -258 363 -541 429 -740 58 -176 72 -276
71 -515 -1 -342 -36 -495 -180 -790 -45 -92 -70 -137 -130 -236 -19 -31 -40
-74 -47 -95 -12 -35 -14 -53 -9 -135 2 -31 61 -94 105 -113 44 -18 119 -12
173 14 70 34 160 151 239 308 71 142 157 421 190 618 14 81 17 122 20 299 3
213 -6 307 -45 470 -51 214 -170 491 -298 690 -84 131 -268 335 -412 456 -115
97 -332 225 -495 292 -115 47 -232 87 -255 87 -21 0 -22 -1 -7 -17z"/>
<path d="M1770 4428 c-19 -4 -48 -10 -64 -13 -190 -37 -559 -322 -773 -595
-150 -193 -307 -518 -373 -773 -48 -189 -86 -516 -62 -531 7 -4 13 8 17 31 21
121 54 223 130 401 130 303 371 604 614 765 208 139 334 204 522 268 153 52
189 70 246 122 52 48 73 84 73 127 0 66 -54 146 -121 181 -43 22 -151 31 -209
17z"/>
<path d="M2170 3785 c-293 -64 -542 -183 -784 -375 -340 -270 -516 -475 -656
-765 -76 -157 -158 -381 -172 -470 -7 -46 23 -14 67 70 129 246 184 325 340
481 215 217 467 384 750 499 140 56 364 116 560 150 129 23 127 22 160 30 89
20 128 48 156 113 44 102 8 202 -93 257 -71 40 -178 43 -328 10z"/>
<path d="M2447 3160 c-27 -5 -70 -11 -95 -15 -25 -3 -48 -8 -52 -10 -3 -2 -24
-6 -47 -10 -122 -18 -435 -138 -589 -227 -308 -176 -639 -528 -819 -872 -29
-56 -63 -126 -75 -156 -12 -30 -28 -71 -36 -90 -19 -46 -22 -95 -7 -95 12 0
93 127 93 146 0 5 5 9 10 9 6 0 10 5 10 11 0 19 108 156 178 225 182 182 432
366 629 463 136 68 370 159 478 186 116 29 141 34 280 49 33 4 76 9 95 11 19
2 64 7 100 10 102 10 178 53 201 112 30 80 -12 207 -79 239 -42 21 -195 28
-275 14z"/>
<path d="M2224 2596 c-54 -26 -88 -57 -102 -96 -14 -37 -8 -128 13 -190 31
-96 158 -319 261 -461 94 -129 332 -340 529 -468 151 -99 385 -195 575 -237
97 -21 464 -32 475 -15 10 18 7 19 -78 35 -322 62 -654 237 -902 475 -212 205
-303 340 -430 641 -123 294 -147 326 -242 334 -38 4 -62 -1 -99 -18z"/>
<path d="M1509 2290 c-79 -41 -123 -123 -117 -212 7 -96 114 -281 249 -434 85
-95 282 -283 364 -347 221 -172 561 -364 781 -440 102 -36 286 -80 379 -93 28
-3 59 -8 70 -10 11 -2 79 -7 151 -11 97 -4 133 -3 139 6 4 7 5 14 2 17 -2 3
-92 27 -200 54 -228 56 -379 106 -477 155 -63 32 -255 156 -305 197 -11 9 -58
47 -105 85 -207 165 -326 318 -481 618 -106 207 -180 333 -215 369 -63 64
-165 83 -235 46z"/>
<path d="M1032 1656 c-136 -46 -174 -195 -92 -355 23 -47 159 -188 270 -281
36 -30 67 -57 70 -60 3 -3 34 -27 70 -54 143 -106 374 -227 556 -289 284 -98
690 -132 1000 -83 52 9 252 54 304 70 47 14 53 33 10 29 -14 -1 -83 -3 -155
-4 -141 -2 -171 1 -390 37 -30 5 -173 32 -210 40 -11 2 -30 6 -42 8 -168 34
-340 110 -518 229 -244 163 -316 228 -488 442 -67 83 -138 165 -157 183 -79
74 -167 108 -228 88z"/>
</g>
</svg>
